<?xml version="1.0" encoding="UTF-8" standalone="no"?>
<!-- Created with Inkscape (http://www.inkscape.org/) -->

<svg xmlns:dc="http://purl.org/dc/elements/1.1/" 
   xmlns:cc="http://creativecommons.org/ns#" 
   xmlns:rdf="http://www.w3.org/1999/02/22-rdf-syntax-ns#" 
   xmlns:svg="http://www.w3.org/2000/svg" 
   xmlns="http://www.w3.org/2000/svg" 
   xmlns:sodipodi="http://sodipodi.sourceforge.net/DTD/sodipodi-0.dtd" 
   xmlns:inkscape="http://www.inkscape.org/namespaces/inkscape" width="13.862803mm" height="21.302607mm" viewBox="0 0 13.862803 21.302607" version="1.1" id="svg3877" inkscape:version="0.92.3 (2405546, 2018-03-11)" sodipodi:docname="tram1.svg">
   <defs id="defs3871" />
   <sodipodi:namedview id="base" pagecolor="#ffffff" bordercolor="#666666" borderopacity="1.0" inkscape:pageopacity="0.0" inkscape:pageshadow="2" inkscape:zoom="3.959798" inkscape:cx="26.433384" inkscape:cy="9.7282965" inkscape:document-units="mm" inkscape:current-layer="layer1" showgrid="false" inkscape:window-width="1920" inkscape:window-height="1023" inkscape:window-x="0" inkscape:window-y="0" inkscape:window-maximized="1" />
   <metadata id="metadata3874">
      <rdf:RDF>
         <cc:Work rdf:about="">
            <dc:format>image/svg+xml</dc:format>
            <dc:type rdf:resource="http://purl.org/dc/dcmitype/StillImage" />
            <dc:title></dc:title>
         </cc:Work>
      </rdf:RDF>
   </metadata>
   <g inkscape:label="Layer 1" inkscape:groupmode="layer" id="layer1" transform="translate(-67.907885,-82.241554)">
      <g style="clip-rule:evenodd;fill-rule:evenodd;stroke-linejoin:round;stroke-miterlimit:2" transform="matrix(0.03624262,0,0,0.03624273,64.188015,82.241554)" id="Layer_1_79_">
         <path id="path3753" style="fill:#3560a7;fill-rule:nonzero" d="m 367.837,89.25 h -54.824 v -51 h 121.125 c 6.375,0 12.75,6.375 12.75,12.75 0,10.2 8.926,19.125 19.125,19.125 10.199,0 19.125,-8.925 19.125,-19.125 0,-28.05 -22.949,-51 -51,-51 h -280.5 c -28.05,0 -51,22.95 -51,51 0,10.2 8.925,19.125 19.125,19.125 10.2,0 19.125,-8.925 19.125,-19.125 0,-7.65 5.1,-12.75 12.75,-12.75 h 121.125 v 49.725 h -54.825 c -62.475,0 -112.2,51 -112.2,112.2 v 229.501 c 0,25.5 17.85,47.174 43.35,51 l -36.975,70.125 c -6.375,12.75 -1.275,28.049 10.2,34.424 3.825,2.551 7.65,2.551 11.475,2.551 8.925,0 17.85,-5.1 22.95,-14.025 l 7.65,-15.301 h 252.449 l 7.65,15.301 c 5.1,8.926 14.025,14.025 22.951,14.025 3.824,0 7.648,-1.275 11.475,-2.551 12.75,-6.375 17.85,-21.674 10.199,-34.424 l -36.975,-70.125 c 24.225,-3.826 43.35,-25.5 43.35,-51 V 201.45 c 2.551,-62.475 -48.449,-112.2 -109.65,-112.2 z m 30.601,346.801 c -20.4,0 -36.977,-16.576 -36.977,-36.977 0,-20.398 16.576,-36.975 36.977,-36.975 20.398,0 36.975,16.576 36.975,36.975 0,20.401 -16.576,36.977 -36.975,36.977 z m -244.8,-220.576 c 0,-39.525 31.875,-70.125 71.4,-70.125 h 140.25 c 39.525,0 71.4,31.875 71.4,70.125 v 62.475 c 0,14.025 -11.477,24.226 -25.5,24.226 H 177.863 c -14.025,0 -25.5,-10.201 -25.5,-24.226 1.275,0 1.275,-62.475 1.275,-62.475 z m 35.699,145.349 c 20.4,0 36.975,16.576 36.975,36.977 0,20.398 -16.575,36.975 -36.975,36.975 -20.4,0 -36.975,-16.576 -36.975,-36.975 0.001,-20.401 16.576,-36.977 36.975,-36.977 z m -2.549,161.926 20.4,-39.525 h 172.126 l 20.398,39.525 z" inkscape:connector-curvature="0" />
      </g>
   </g>
</svg>
