<?xml version="1.0" encoding="UTF-8" standalone="no"?>
<!-- Created with Inkscape (http://www.inkscape.org/) -->

<svg xmlns:dc="http://purl.org/dc/elements/1.1/" 
   xmlns:cc="http://creativecommons.org/ns#" 
   xmlns:rdf="http://www.w3.org/1999/02/22-rdf-syntax-ns#" 
   xmlns:svg="http://www.w3.org/2000/svg" 
   xmlns="http://www.w3.org/2000/svg" 
   xmlns:sodipodi="http://sodipodi.sourceforge.net/DTD/sodipodi-0.dtd" 
   xmlns:inkscape="http://www.inkscape.org/namespaces/inkscape" width="18.18124mm" height="21.302435mm" viewBox="0 0 18.18124 21.302435" version="1.1" id="svg3832" inkscape:version="0.92.3 (2405546, 2018-03-11)" sodipodi:docname="tram.svg">
   <defs id="defs3826" />
   <sodipodi:namedview id="base" pagecolor="#ffffff" bordercolor="#666666" borderopacity="1.0" inkscape:pageopacity="0.0" inkscape:pageshadow="2" inkscape:zoom="2.56" inkscape:cx="37.809026" inkscape:cy="48.788063" inkscape:document-units="mm" inkscape:current-layer="layer1" showgrid="false" inkscape:window-width="1920" inkscape:window-height="1023" inkscape:window-x="0" inkscape:window-y="0" inkscape:window-maximized="1" />
   <metadata id="metadata3829">
      <rdf:RDF>
         <cc:Work rdf:about="">
            <dc:format>image/svg+xml</dc:format>
            <dc:type rdf:resource="http://purl.org/dc/dcmitype/StillImage" />
            <dc:title></dc:title>
         </cc:Work>
      </rdf:RDF>
   </metadata>
   <g inkscape:label="Layer 1" inkscape:groupmode="layer" id="layer1" transform="translate(-93.907892,-135.53628)">
      <g style="clip-rule:evenodd;fill-rule:evenodd;stroke-linejoin:round;stroke-miterlimit:2" id="g3739" transform="matrix(0.22747023,0,0,0.22747033,80.561531,48.830801)">
         <path id="path3737" style="fill:#3560a7;fill-rule:nonzero" d="m 65.696,464.834 c -0.007,10e-4 -3.619,0.888 -3.619,-4.494 -0.596,-6.979 -0.918,-21.012 -0.521,-34.462 -1.679,-0.625 -2.883,-2.226 -2.883,-4.125 v -8.539 c 0,-2.257 1.705,-4.1 3.894,-4.358 0.678,-6.821 3.126,-14.527 3.131,-14.544 h 12.151 c 0.022,-0.026 0.045,-0.052 0.068,-0.078 3.984,-4.149 8.132,-8.136 12.199,-12.203 0.612,-0.588 1.145,-0.899 2.252,-0.854 2.207,0.178 3.618,3.069 1.98,4.919 -2.677,2.787 -5.428,5.501 -8.178,8.216 h 16.688 c 0.022,-0.026 0.045,-0.052 0.068,-0.078 3.985,-4.149 8.133,-8.136 12.2,-12.203 0.61,-0.587 1.138,-0.899 2.252,-0.854 2.215,0.179 3.618,3.069 1.979,4.919 -2.677,2.787 -5.427,5.501 -8.178,8.216 h 19.724 c 0.01,0.025 2.935,7.573 3.646,14.533 2.267,0.184 4.054,2.058 4.052,4.369 v 8.539 c 0,1.98 -1.303,3.625 -3.089,4.184 0.362,14.56 -0.076,29.984 -0.076,36.944 -0.273,2.534 -4.524,1.954 -4.533,1.953 h -1.114 v 5.816 c 0,2.306 -2.378,4.172 -5.307,4.172 -2.933,0 -5.309,-1.866 -5.309,-4.172 v -5.816 H 79.706 v 5.816 c 0,2.306 -2.377,4.172 -5.31,4.172 -2.93,0 -5.307,-1.866 -5.307,-4.172 v -5.816 z m 21.509,-16.582 h -7.749 c -1.183,0 -2.144,0.961 -2.144,2.144 v 4.289 c 0,1.183 0.961,2.144 2.144,2.144 h 7.749 c 1.183,0 2.144,-0.961 2.144,-2.144 v -4.289 c 0,-1.183 -0.961,-2.144 -2.144,-2.144 z m 30.613,0 h -7.748 c -1.184,0 -2.144,0.961 -2.144,2.144 v 4.289 c 0,1.183 0.96,2.144 2.144,2.144 h 7.748 c 1.184,0 2.145,-0.961 2.145,-2.144 v -4.289 c 0,-1.183 -0.961,-2.144 -2.145,-2.144 z m 7.398,-43.315 h -53.83 v 28.235 h 53.83 z" inkscape:connector-curvature="0" />
      </g>
   </g>
</svg>
