<?xml version="1.0" encoding="utf-8"?>
<!-- Generator: Adobe Illustrator 19.0.0, SVG Export Plug-In . SVG Version: 6.00 Build 0)  -->
<svg version="1.1" id="Layer_1" 
	xmlns="http://www.w3.org/2000/svg" 
	xmlns:xlink="http://www.w3.org/1999/xlink" x="0px" y="0px" viewBox="0 0 94.2 63" style="enable-background:new 0 0 94.2 63;" xml:space="preserve">
	<style type="text/css">
	.st0{fill:#F6ECDB;}
	.st1{fill:#D77F3B;}
	.st2{fill:#00477F;}
	</style>
	<g transform="matrix(0.0719678,0,0,0.146004,150.536,260.654)">
		<g transform="matrix(4.16667,0,0,4.16667,69.7112,539.968)">
			<path class="st0" d="M-518.7-535.7c0-3.3,6.3-6.6,13.9-7.5l129.2-14.2c7.6-0.8,20.2-0.8,27.8,0l129.2,14.2
			c7.6,0.8,13.9,4.2,13.9,7.5v47.1c0,3.3-6.3,6.6-13.9,7.5l-129.2,14.2c-7.7,0.8-20.2,0.8-27.8,0l-129.2-14.2
			c-7.6-0.8-13.9-4.2-13.9-7.5V-535.7z"/>
		</g>
		<g transform="matrix(4.16667,0,0,4.16667,604.151,77.5446)">
			<path class="st1" d="M-490-357.8c-4.8,0-9.5-0.2-12.8-0.6L-632-372.6c-5.3-0.6-10-2.9-10-5v-47.1c0-2.1,4.7-4.5,10-5l129.2-14.2
			c3.3-0.4,8-0.6,12.8-0.6c4.8,0,9.5,0.2,12.8,0.6l129.2,14.2c5.3,0.6,10,2.9,10,5v47.1c0,2.1-4.7,4.5-10,5l-129.2,14.2
			C-480.5-358-485.2-357.8-490-357.8"/>
		</g>
		<g transform="matrix(4.16667,0,0,4.16667,604.151,102.685)">
			<path class="st0" d="M-490-367.5c-4.3,0-8.4-0.2-11.2-0.5l-129.2-14.2c-2.3-0.3-3.9-1.2-4.2-1.6v-46.9c0.3-0.4,1.9-1.3,4.2-1.6
			l129.2-14.2c2.8-0.3,6.9-0.5,11.2-0.5s8.4,0.2,11.2,0.5l129.2,14.2c2.3,0.3,3.9,1.2,4.2,1.6v46.9c-0.3,0.4-1.9,1.3-4.2,1.6
			l-129.2,14.2C-481.6-367.6-485.7-367.5-490-367.5"/>
		</g>
		<g transform="matrix(4.16667,0,0,4.16667,812.957,681.464)">
			<path class="st0" d="M-478.8-499.6c3.4-4.1,6.7-8.2,10.1-12.3c14.6,2.9,28.5,6.7,41.6,11.5c-6.1,0.5-12.1,1.2-17.8,1.9
			c0.9,2.9,1.5,5.9,1.8,8.7C-454.3-493.9-466.3-497.1-478.8-499.6"/>
		</g>
		<g transform="matrix(4.16667,0,0,4.16667,815.667,684.183)">
			<path class="st1" d="M-478.6-500.4c12.1,2.4,23.6,5.6,34.2,9.4c-0.3-2.7-0.9-5.4-1.8-8.1l-0.1-0.3l0.5-0.1
			c5.4-0.7,10.9-1.4,16.4-1.8c-12.3-4.4-25.7-8.1-39.7-10.9L-478.6-500.4z M-443-489.8l-1-0.4c-11-4-23-7.3-35.6-9.8l-0.6-0.1
			l10.5-12.9l0.6,0.1c14.8,2.9,28.8,6.8,41.7,11.5l1.2,0.4l-1.4,0.1c-5.8,0.5-11.6,1.1-17.2,1.9c0.9,2.8,1.5,5.7,1.8,8.5L-443-489.8
			z"/>
		</g>
		<g transform="matrix(4.16667,0,0,4.16667,995.427,687.24)">
			<path class="st1" d="M-469-501.6c-1-0.4-2-0.7-3-1.1c-12.4-4.4-25.7-8-39.4-10.8c-0.6-0.1-1.1-0.2-1.7-0.3
			c-0.2,0.2-0.4,0.4-0.5,0.7c-3.1,3.9-6.3,7.8-9.4,11.7c-0.2,0.2-0.4,0.4-0.5,0.7c0.5,0.1,0.9,0.2,1.4,0.3c11.7,2.4,23,5.4,33.6,9.2
			c0.8,0.3,1.7,0.6,2.5,0.9c0-0.5-0.1-1-0.1-1.4c-0.3-2.6-0.8-5.1-1.6-7.7c5.1-0.7,10.3-1.3,15.7-1.7
			C-471.1-501.4-470-501.5-469-501.6 M-472.8-502.1c-5.8,0.5-11.4,1.1-16.8,1.9c0.9,2.8,1.5,5.5,1.9,8.3
			c-10.7-3.8-22.1-6.9-33.9-9.3c3.2-3.9,6.4-7.8,9.7-11.6C-498.3-510.1-485.1-506.5-472.8-502.1"/>
		</g>
		<g transform="matrix(4.16667,0,0,4.16667,819.02,687.205)">
			<path class="st1" d="M-478.5-501.3c11.4,2.3,22.3,5.3,32.4,8.8c-0.4-2.5-1-5.1-1.8-7.6l-0.1-0.3l0.5-0.1c5-0.7,10.2-1.3,15.4-1.8
			c-11.6-4.1-24.1-7.5-37.3-10.1L-478.5-501.3z M-444.7-491.3l-1.1-0.4c-10.5-3.7-21.8-6.8-33.8-9.2l-0.6-0.1l10.1-12.2l0.6,0.1
			c13.9,2.8,27.1,6.4,39.3,10.7l1.2,0.4l-1.4,0.1c-5.5,0.5-10.9,1.1-16.2,1.8c0.9,2.7,1.5,5.4,1.8,8L-444.7-491.3z M-480.4-501
			c0.3,0.1,0.6,0.1,0.9,0.2c11.9,2.4,23.3,5.5,33.7,9.2c0.5,0.2,1,0.4,1.5,0.5c0-0.3-0.1-0.5-0.1-0.8c-0.3-2.6-0.9-5.2-1.6-7.7
			l-0.1-0.3l0.5-0.1c5.1-0.7,10.4-1.3,15.7-1.7c0.6,0,1.1-0.1,1.7-0.1c-0.6-0.2-1.2-0.4-1.8-0.7c-12.2-4.3-25.4-8-39.3-10.8
			c-0.4-0.1-0.7-0.1-1.1-0.2L-480.4-501z M-443-489.8l-1-0.4c-0.8-0.3-1.7-0.6-2.5-0.9c-10.4-3.7-21.7-6.8-33.5-9.2
			c-0.5-0.1-0.9-0.2-1.4-0.3l-0.6-0.1l10.9-13.5l0.6,0.1c0.6,0.1,1.1,0.2,1.7,0.3c14,2.8,27.3,6.5,39.6,10.8c1,0.4,2,0.7,3,1.1
			l1.2,0.4l-1.4,0.1c-1.1,0.1-2.1,0.2-3.1,0.3c-5.1,0.4-10.2,1-15.1,1.6c0.7,2.5,1.3,5,1.6,7.5c0.1,0.5,0.1,1,0.2,1.5L-443-489.8z" />
		</g>
		<g transform="matrix(4.16667,0,0,4.16667,273.756,613.56)">
			<path class="st0" d="M-507.8-473.5c0.3-2.9,0.9-5.8,1.8-8.7c-5.7-0.8-11.7-1.4-17.8-1.9c13.1-4.7,27.1-8.6,41.6-11.5
			c3.4,4.1,6.7,8.2,10.1,12.3C-484.5-480.8-496.6-477.6-507.8-473.5"/>
		</g>
		<g transform="matrix(4.16667,0,0,4.16667,224.618,690.113)">
			<path class="st1" d="M-510.4-502.7c5.5,0.5,11.1,1.1,16.4,1.8l0.5,0.1l-0.1,0.3c-0.8,2.7-1.4,5.4-1.8,8.1
			c10.6-3.8,22.1-6.9,34.2-9.4l-9.6-11.7C-484.7-510.8-498.1-507.1-510.4-502.7 M-496.7-491.2l0.1-0.6c0.3-2.8,0.9-5.7,1.8-8.5
			c-5.6-0.8-11.4-1.4-17.2-1.9l-1.4-0.1l1.2-0.4c12.9-4.7,26.9-8.5,41.7-11.5l0.6-0.1l10.5,12.9l-0.6,0.1
			c-12.6,2.5-24.6,5.8-35.6,9.8L-496.7-491.2z"/>
		</g>
		<g transform="matrix(4.16667,0,0,4.16667,362.981,771.556)">
			<path class="st1" d="M-503-534c-0.6,0.1-1.1,0.2-1.7,0.3c-13.8,2.8-27,6.4-39.4,10.8c-1,0.4-2,0.7-3,1.1c1.1,0.1,2.1,0.2,3.1,0.3
			c5.4,0.5,10.6,1,15.7,1.7c-0.8,2.6-1.3,5.2-1.6,7.7c-0.1,0.5-0.1,1-0.1,1.4c0.8-0.3,1.7-0.6,2.5-0.9c10.6-3.8,21.9-6.8,33.6-9.2
			c0.5-0.1,0.9-0.2,1.4-0.3c-0.2-0.2-0.4-0.4-0.5-0.7c-3.1-3.9-6.3-7.8-9.4-11.7C-502.6-533.6-502.8-533.8-503-534 M-504.1-533.1
			c3.2,3.9,6.4,7.8,9.7,11.6c-11.8,2.4-23.2,5.5-33.9,9.3c0.4-2.7,1-5.5,1.9-8.3c-5.4-0.8-11-1.4-16.8-1.9
			C-530.9-526.7-517.8-530.3-504.1-533.1"/>
		</g>
		<g transform="matrix(4.16667,0,0,4.16667,231.117,693.558)">
			<path class="st1" d="M-510.1-503.8c5.2,0.5,10.4,1.1,15.4,1.8l0.5,0.1l-0.1,0.3c-0.8,2.5-1.4,5.1-1.8,7.6
			c10.1-3.5,21-6.5,32.4-8.8l-9.2-11.1C-485.9-511.3-498.4-507.9-510.1-503.8 M-497.4-492.8l0.1-0.6c0.3-2.7,0.9-5.4,1.8-8
			c-5.3-0.7-10.7-1.4-16.2-1.8l-1.4-0.1l1.2-0.4c12.2-4.3,25.4-8,39.3-10.7l0.6-0.1l10.1,12.2l-0.6,0.1c-11.9,2.4-23.3,5.5-33.8,9.2
			L-497.4-492.8z M-513.9-503.3c0.6,0,1.1,0.1,1.7,0.1c5.3,0.4,10.6,1,15.8,1.7l0.5,0.1l-0.1,0.3c-0.8,2.6-1.3,5.2-1.6,7.7
			c0,0.3-0.1,0.5-0.1,0.8c0.5-0.2,1-0.4,1.5-0.5c10.5-3.7,21.8-6.8,33.7-9.2c0.3-0.1,0.6-0.1,0.9-0.2l-0.3-0.4l-9.7-12
			c-0.4,0.1-0.7,0.1-1.1,0.2c-13.9,2.8-27.1,6.4-39.3,10.8C-512.7-503.7-513.3-503.5-513.9-503.3 M-499-491.3l0.1-0.6
			c0-0.5,0.1-1,0.1-1.5c0.3-2.5,0.8-5,1.6-7.5c-4.9-0.7-10-1.2-15.1-1.6c-1-0.1-2.1-0.2-3.1-0.3l-1.4-0.1l1.2-0.4c1-0.4,2-0.7,3-1.1
			c12.3-4.4,25.6-8,39.6-10.8c0.6-0.1,1.1-0.2,1.7-0.3l0.6-0.1l0.8,0.9l10.2,12.6l-0.6,0.1c-0.5,0.1-0.9,0.2-1.4,0.3
			c-11.8,2.4-23.1,5.5-33.5,9.2c-0.8,0.3-1.7,0.6-2.5,0.9L-499-491.3z"/>
		</g>
		<g transform="matrix(0.78292,4.09245,4.09245,-0.78292,455.733,357.711)">
			<path class="st0" d="M-514.8-440.9c-6.1-4.1-12.2-8.3-18.3-12.4c-2.9,58.9,9.8,125,34.2,178.7c4.2-6.1,8.3-12.2,12.5-18.3
			C-506.7-337.3-517.2-392.1-514.8-440.9"/>
		</g>
		<g transform="matrix(4.16667,0,0,4.16667,604.153,574.706)">
			<path class="st1" d="M-490-483.8c25.9,0,51.9,2.9,75.1,8.5l15.1-15.1c-27.9-6.7-59.1-10.2-90.2-10.2s-62.3,3.5-90.2,10.2
			l15.1,15.1C-541.9-480.8-515.9-483.8-490-483.8 M-414.4-474.5l-0.5-0.1c-23.2-5.6-49.2-8.6-75.1-8.6c-25.9,0-51.9,3-75.1,8.6
			l-0.5,0.1l-16.1-16.2l0.5-0.1c28.2-6.8,59.7-10.4,91.2-10.4c31.5,0,63,3.6,91.2,10.4l0.5,0.1L-414.4-474.5z"/>
		</g>
		<g transform="matrix(4.16667,0,0,4.16667,917.64,598.752)">
			<path class="st1" d="M-473.2-496.4c-0.5-0.1-1.1-0.3-1.6-0.4c-57-13.6-123.9-13.6-180.9,0c-0.5,0.1-1.1,0.3-1.6,0.4
			c0.2,0.2,0.4,0.4,0.6,0.6c5.1,5,10.1,10,15.2,15.1c0.2,0.2,0.4,0.4,0.6,0.6c0.5-0.1,0.9-0.2,1.4-0.3c46.9-11.2,101.9-11.2,148.8,0
			c0.5,0.1,0.9,0.2,1.4,0.3c0.2-0.2,0.4-0.4,0.6-0.6c5.1-5,10.1-10,15.2-15.1C-473.6-496-473.4-496.2-473.2-496.4 M-475.4-496.2
			c-5,5-9.9,10.1-14.9,15.1c-47.3-11.3-102.7-11.3-150,0c-5-5-9.9-10.1-14.9-15.1C-598.4-509.8-532-509.8-475.4-496.2"/>
		</g>
		<g transform="matrix(4.16667,0,0,4.16667,604.157,577.881)">
			<path class="st1" d="M-490-484.9c25.7,0,51.6,2.9,74.7,8.4l14.4-14.6c-27.6-6.5-58.4-10-89-10s-61.5,3.5-89,10l14.4,14.6
			C-541.6-482-515.7-484.9-490-484.9 M-414.7-475.7l-0.6-0.1c-23.1-5.5-48.9-8.5-74.7-8.5c-25.8,0-51.6,2.9-74.7,8.5l-0.6,0.1
			l-15.4-15.7l0.5-0.1c27.9-6.7,59.1-10.2,90.1-10.2c31.1,0,62.2,3.5,90.1,10.2l0.5,0.1L-414.7-475.7z M-490-484.2
			c25.7,0,51.6,2.9,74.7,8.4c0.3,0.1,0.5,0.1,0.8,0.2l15.8-15.7c-0.4-0.1-0.7-0.2-1.1-0.3c-27.9-6.7-59.1-10.2-90.2-10.2
			c-31.1,0-62.3,3.5-90.2,10.2c-0.4,0.1-0.7,0.2-1.1,0.3l15.8,15.7c0.3-0.1,0.5-0.1,0.8-0.2C-541.6-481.3-515.8-484.2-490-484.2
			 M-566-474.8l-16.9-16.8l0.5-0.1c0.5-0.1,1.1-0.3,1.7-0.4c28.1-6.7,59.4-10.3,90.7-10.3s62.6,3.5,90.7,10.3
			c0.5,0.1,1.1,0.3,1.6,0.4l0.5,0.1l-16.9,16.8l-0.5-0.1c-0.4-0.1-0.9-0.2-1.3-0.3c-22.9-5.5-48.6-8.4-74.1-8.4
			c-25.6,0-51.2,2.9-74.1,8.4c-0.5,0.1-0.9,0.2-1.3,0.3L-566-474.8z"/>
		</g>
		<g transform="matrix(4.16667,0,0,4.16667,348.66,238.94)">
			<path class="st2" d="M-503.7-446.5v-0.6h-8.6c-2.6,0-4.7-1-4.7-2.3v-10.5h-1.3v10.5c0,1.6,2.7,2.9,5.9,2.9H-503.7z M-500.9-445.1
			h-11.5c-4.8,0-8.7-1.9-8.7-4.3v-12h6.9v12c0,0.5,0.8,0.9,1.9,0.9h11.4L-500.9-445.1z"/>
		</g>
		<g transform="matrix(4.16667,0,0,4.16667,429.534,311.959)">
			<path class="st2" d="M-499.4-474.6c0-0.5-0.8-0.9-1.8-0.9h-6.2c-1,0-1.8,0.4-1.8,0.9v3.7l9.8-1.3V-474.6z M-496.5-474.6v3.5
			l-15.6,2v-5.6c0-1.3,2.1-2.3,4.7-2.3h6.2C-498.6-476.9-496.5-475.8-496.5-474.6 M-495.3-474.6c0-1.6-2.6-2.9-5.9-2.9h-6.2
			c-3.2,0-5.9,1.3-5.9,2.9v10.6h1.2v-4.4l15.6-2.1v6.5h1.2V-474.6z M-492.5-474.6v12h-6.9v-6l-9.8,1.3v4.7h-6.9v-12
			c0-2.4,3.9-4.3,8.7-4.3h6.2C-496.4-478.9-492.5-476.9-492.5-474.6"/>
		</g>
		<g transform="matrix(4.16667,0,0,4.16667,540.738,331.998)">
			<path class="st2" d="M-493.4-482.3h-1.2v10.6c0,1.3-2.1,2.3-4.7,2.3h-6.3c-2.6,0-4.7-1-4.7-2.3v-10.6h-1.2v10.6
			c0,1.6,2.7,2.9,5.9,2.9h6.3c3.2,0,5.9-1.3,5.9-2.9V-482.3z M-490.6-483.7v12c0,2.4-3.9,4.3-8.7,4.3h-6.3c-4.8,0-8.7-1.9-8.7-4.3
			v-12h6.9v12c0,0.5,0.8,0.9,1.8,0.9h6.3c1,0,1.8-0.4,1.8-0.9v-12H-490.6z"/>
		</g>
		<g transform="matrix(4.16667,0,0,4.16667,626.291,238.94)">
			<path class="st2" d="M-488.8-446.5v-0.6h-8.6c-2.6,0-4.7-1-4.7-2.3v-10.5h-1.3v10.5c0,1.6,2.7,2.9,5.9,2.9H-488.8z M-486-445.1
			h-11.5c-4.8,0-8.7-1.9-8.7-4.3v-12h6.9v12c0,0.5,0.8,0.9,1.9,0.9h11.4L-486-445.1z"/>
		</g>
		<g transform="matrix(4.16667,0,0,4.16667,707.166,311.959)">
			<path class="st2" d="M-484.5-474.6c0-0.5-0.8-0.9-1.8-0.9h-6.2c-1,0-1.8,0.4-1.8,0.9v3.7l9.8-1.3V-474.6z M-481.6-474.6v3.5
			l-15.6,2v-5.6c0-1.3,2.1-2.3,4.7-2.3h6.2C-483.7-476.9-481.6-475.8-481.6-474.6 M-480.4-474.6c0-1.6-2.6-2.9-5.9-2.9h-6.2
			c-3.2,0-5.9,1.3-5.9,2.9v10.6h1.2v-4.4l15.6-2.1v6.5h1.2V-474.6z M-477.5-474.6v12h-6.9v-6l-9.8,1.3v4.7h-6.9v-12
			c0-2.4,3.9-4.3,8.7-4.3h6.2C-481.4-478.9-477.5-476.9-477.5-474.6"/>
		</g>
		<g transform="matrix(4.16667,0,0,4.16667,820.427,332.186)">
			<path class="st2" d="M-478.4-482.3h-1.3l-7.6,12.9h-1.2l-7.6-12.9h-1.3l8,13.5h2.9L-478.4-482.3z M-484.3-467.5h-7.1l-9.8-16.3
			h7.3l6,10.2l6.1-10.2h7.3L-484.3-467.5z"/>
		</g>
		<g transform="matrix(4.16667,0,0,4.16667,904.668,311.959)">
			<path class="st2" d="M-473.9-474.6c0-0.5-0.8-0.9-1.8-0.9h-6.2c-1,0-1.8,0.4-1.8,0.9v3.7l9.8-1.3V-474.6z M-471-474.6v3.5l-15.6,2
			v-5.6c0-1.3,2.1-2.3,4.7-2.3h6.2C-473.1-476.9-471-475.8-471-474.6 M-469.8-474.6c0-1.6-2.6-2.9-5.9-2.9h-6.2
			c-3.2,0-5.9,1.3-5.9,2.9v10.6h1.2v-4.4l15.6-2.1v6.5h1.2V-474.6z M-466.9-474.6v12h-6.9v-6l-9.8,1.3v4.7h-6.9v-12
			c0-2.4,3.9-4.3,8.7-4.3h6.2C-470.8-478.9-466.9-476.9-466.9-474.6"/>
		</g>
		<g transform="matrix(4.16667,0,0,4.16667,248.501,447.754)">
			<path class="st2" d="M-509.1-487.5c0-0.5-0.8-0.9-1.8-0.9h-6.3c-1,0-1.8,0.4-1.8,0.9v7.7c0,0.5,0.8,0.9,1.8,0.9h6.3
			c1,0,1.8-0.4,1.8-0.9V-487.5z M-506.3-487.5v7.7c0,1.3-2.1,2.3-4.7,2.3h-6.3c-2.6,0-4.7-1-4.7-2.3v-7.7c0-1.3,2.1-2.3,4.7-2.3h6.3
			C-508.4-489.8-506.3-488.8-506.3-487.5 M-505.1-487.5c0-1.6-2.7-2.9-5.9-2.9h-6.3c-3.2,0-5.9,1.3-5.9,2.9v7.7
			c0,1.6,2.7,2.9,5.9,2.9h6.3c3.2,0,5.9-1.3,5.9-2.9V-487.5z M-502.3-487.5v7.7c0,2.4-3.9,4.3-8.7,4.3h-6.3c-4.7,0-8.7-1.9-8.7-4.3
			v-7.7c0-2.4,4-4.3,8.7-4.3h6.3C-506.2-491.8-502.3-489.8-502.3-487.5"/>
		</g>
		<g transform="matrix(4.16667,0,0,4.16667,359.895,467.981)">
			<path class="st2" d="M-503.1-495.3h-1.3l-7.6,12.9h-1.2l-7.6-12.9h-1.3l8,13.5h2.9L-503.1-495.3z M-509.1-480.4h-7.1l-9.8-16.3
			h7.3l6,10.2l6.1-10.2h7.3L-509.1-480.4z"/>
		</g>
		<g transform="matrix(4.16667,0,0,4.16667,0,21.875)">
			<path class="st2" d="M-404.7-388.2h-1.2v13.4h1.2V-388.2z M-401.9-373.3h-6.9v-16.3h6.9V-373.3z"/>
		</g>
		<g transform="matrix(4.16667,0,0,4.16667,486.256,447.754)">
			<path class="st2" d="M-496.3-487.5c0-0.5-0.8-0.9-1.8-0.9h-8.6v4.4l9.5-1.2c0.5-0.2,0.9-0.5,0.9-0.8V-487.5z M-493.5-487.5v1.5
			c0,0.8-0.9,1.6-2.4,2c0,0-0.3,0.1-1,0.2c-0.7,0.1-12.7,1.6-12.7,1.6v-7.7h11.4C-495.6-489.8-493.5-488.8-493.5-487.5
			 M-492.3-487.5c0-1.6-2.6-2.9-5.8-2.9h-12.6v13.4h1.2v-4.6l12.7-1.6c2.7-0.3,4.6-1.5,4.6-2.8V-487.5z M-489.5-487.5v1.5
			c0,2-3,3.7-6.8,4.2l-10.5,1.4v4.9h-6.9v-16.3h15.5C-493.4-491.8-489.5-489.9-489.5-487.5"/>
		</g>
		<g transform="matrix(4.16667,0,0,4.16667,594.839,467.793)">
			<path class="st2" d="M-490.5-495.2h-1.2v10.6c0,1.3-2.1,2.3-4.7,2.3h-6.3c-2.6,0-4.7-1-4.7-2.3v-10.6h-1.2v10.6
			c0,1.6,2.7,2.9,5.9,2.9h6.3c3.2,0,5.9-1.3,5.9-2.9V-495.2z M-487.7-496.6v12c0,2.4-3.9,4.3-8.7,4.3h-6.3c-4.8,0-8.7-1.9-8.7-4.3
			v-12h6.9v12c0,0.5,0.8,0.9,1.8,0.9h6.3c1,0,1.8-0.4,1.8-0.9v-12H-487.7z"/>
		</g>
		<g transform="matrix(4.16667,0,0,4.16667,724.203,447.754)">
			<path class="st2" d="M-483.6-487.5c0-1.6-2.7-2.9-5.9-2.9h-2.5c-1,0-2.2,0.1-3.8,0.7c-0.7,0.3-1.2,0.7-1.5,0.9
			c-0.3-0.3-0.8-0.6-1.5-0.9c-1.4-0.6-2.9-0.7-3.8-0.7h-8.4v13.5h1.2v-12.9h7.2c2.6,0,4.7,1.1,4.7,2.3v5l1.2-0.1v-4.9
			c0-1.3,2.1-2.3,4.7-2.3h2.5c2.6,0,4.7,1.1,4.7,2.3v10.6h1.2V-487.5z M-480.7-487.5v12h-6.9v-12c0-0.5-0.8-0.9-1.9-0.9h-2.5
			c-1,0-1.9,0.4-1.9,0.9v6l-6.9,0.8v-6.8c0-0.5-0.9-0.9-1.9-0.9h-4.3v12.9h-6.9v-16.3h11.2c2,0,3.9,0.4,5.3,0.9
			c1.4-0.5,3.2-0.9,5.3-0.9h2.5C-484.7-491.8-480.7-489.9-480.7-487.5"/>
		</g>
		<g transform="matrix(4.16667,0,0,4.16667,809.567,447.754)">
			<path class="st2" d="M-479-487.5c0-0.5-0.8-0.9-1.8-0.9h-8.6v4.4l9.5-1.2c0.5-0.2,0.9-0.5,0.9-0.8V-487.5z M-476.1-487.5v1.5
			c0,0.8-0.9,1.6-2.4,2c0,0-0.3,0.1-1,0.2c-0.7,0.1-12.7,1.6-12.7,1.6v-7.7h11.4C-478.2-489.8-476.1-488.8-476.1-487.5 M-475-487.5
			c0-1.6-2.6-2.9-5.8-2.9h-12.6v13.4h1.2v-4.6l12.7-1.6c2.7-0.3,4.6-1.5,4.6-2.8V-487.5z M-472.1-487.5v1.5c0,2-3,3.7-6.8,4.2
			l-10.5,1.4v4.9h-6.9v-16.3h15.5C-476-491.8-472.1-489.9-472.1-487.5"/>
		</g>
		<g transform="matrix(4.16667,0,0,4.16667,906.166,447.754)">
			<path class="st2" d="M-473.8-487.5c0-0.5-0.8-0.9-1.8-0.9h-8.6v4.4l9.5-1.2c0.5-0.2,0.9-0.5,0.9-0.8V-487.5z M-470.9-487.5v1.5
			c0,0.8-0.9,1.6-2.4,2c0,0-0.3,0.1-1,0.2c-0.7,0.1-12.7,1.6-12.7,1.6v-7.7h11.4C-473-489.8-470.9-488.8-470.9-487.5 M-469.8-487.5
			c0-1.6-2.6-2.9-5.8-2.9h-12.6v13.4h1.2v-4.6l12.7-1.6c2.7-0.3,4.6-1.5,4.6-2.8V-487.5z M-466.9-487.5v1.5c0,2-3,3.7-6.8,4.2
			l-10.5,1.4v4.9h-6.9v-16.3h15.5C-470.8-491.8-466.9-489.9-466.9-487.5"/>
		</g>
		<g transform="matrix(4.16667,0,0,4.16667,1014.75,467.793)">
			<path class="st2" d="M-467.9-495.2h-1.2v10.6c0,1.3-2.1,2.3-4.7,2.3h-6.3c-2.6,0-4.7-1-4.7-2.3v-10.6h-1.2v10.6
			c0,1.6,2.7,2.9,5.9,2.9h6.3c3.2,0,5.9-1.3,5.9-2.9V-495.2z M-465.1-496.6v12c0,2.4-3.9,4.3-8.7,4.3h-6.3c-4.8,0-8.7-1.9-8.7-4.3
			v-12h6.9v12c0,0.5,0.8,0.9,1.8,0.9h6.3c1,0,1.8-0.4,1.8-0.9v-12H-465.1z"/>
		</g>
		<g transform="matrix(4.16667,0,0,4.16667,354.998,611.955)">
			<path class="st2" d="M-503.4-492.8l-2-2.1c-0.3-0.3,0-0.6,0.5-0.7c0.6-0.1,1.2,0,1.5,0.3l2,2.1c0.7,0.7,1.8,0.9,3,0.7
			c1.2-0.3,1.6-0.8,1-1.5l-2-2.1c-0.3-0.3,0-0.6,0.5-0.7c0.6-0.1,1.2,0,1.5,0.3l1.9,2.1c1.3,1.4,0.3,2.4-2.1,2.9
			C-500-491.1-502.2-491.5-503.4-492.8"/>
		</g>
		<g transform="matrix(4.16667,0,0,4.16667,384.388,622.47)">
			<path class="st2" d="M-501.8-499.8c-0.2-0.3,0.1-0.6,0.7-0.7c0.6-0.1,1.2,0,1.4,0.3l2.4,3.3l3.9-0.7c0.5-0.1,1.1,0,1.3,0.3
			c0.2,0.3-0.1,0.5-0.6,0.6l-4.9,0.9c-0.6,0.1-1.2,0-1.4-0.3L-501.8-499.8z"/>
		</g>
		<g transform="matrix(4.16667,0,0,4.16667,414.399,607.138)">
			<path class="st2" d="M-500.2-497.7c-0.2-0.3,0.2-0.6,0.8-0.7c0.6-0.1,1.2,0.1,1.4,0.4l1,1.6l2.8-2.5c0.2-0.2,0.4-0.3,0.8-0.3
			c0.6-0.1,1.1,0.1,1.3,0.3c0.1,0.2,0,0.3-0.2,0.5l-2,1.7l4.1,1.4c0.2,0.1,0.4,0.2,0.5,0.3c0.2,0.3-0.2,0.6-0.8,0.7
			c-0.4,0.1-0.7,0-1.1-0.1l-3.8-1.4l-0.9,0.7l0.6,1c0.2,0.3-0.2,0.6-0.8,0.7c-0.6,0.1-1.2-0.1-1.4-0.4L-500.2-497.7z"/>
		</g>
		<g transform="matrix(4.16667,0,0,4.16667,477.467,591.108)">
			<path class="st2" d="M-496.8-494.1L-496.8-494.1c-0.4-0.8-1.9-1.4-3.7-1.2c-1.7,0.2-2.7,1-2.3,1.8l0,0c0.4,0.8,1.9,1.4,3.7,1.2
			C-497.4-492.5-496.4-493.3-496.8-494.1 M-505-493.2L-505-493.2c-0.6-1.4,1.1-2.8,4.1-3.1c3-0.3,5.7,0.5,6.3,1.9l0,0
			c0.6,1.4-1.1,2.8-4.1,3.1C-501.7-491-504.4-491.8-505-493.2"/>
		</g>
		<g transform="matrix(4.16667,0,0,4.16667,490.378,592.35)">
			<path class="st2" d="M-496.1-496.8c-0.1-0.3,0.3-0.6,0.9-0.6l0.2,0c0.5,0,0.8,0.1,1.1,0.2l3.3,1.9l2-2.3c0.2-0.2,0.5-0.3,0.9-0.3
			l0.2,0c0.6,0,1.2,0.2,1.3,0.5l1.2,3.9c0.1,0.3-0.3,0.6-0.9,0.6c-0.6,0-1.2-0.2-1.2-0.5l-0.7-2.5l-1.5,1.6
			c-0.2,0.2-0.4,0.3-0.8,0.3c-0.4,0-0.7-0.1-1-0.2l-2.3-1.3l0.7,2.4c0.1,0.3-0.3,0.6-0.9,0.6c-0.6,0-1.1-0.2-1.2-0.5L-496.1-496.8z" />
		</g>
		<g transform="matrix(4.16667,0,0,4.16667,554.583,575.099)">
			<path class="st2" d="M-492.7-491.4l-1.7-1.6l-1.1,1.7L-492.7-491.4z M-498.7-489.8l2.8-4c0.2-0.3,0.6-0.5,1.2-0.5l0.1,0
			c0.6,0,1.1,0.1,1.4,0.4l4.2,3.8c0.1,0.1,0.1,0.1,0.2,0.2c0,0.3-0.4,0.5-1,0.6c-0.5,0-0.9-0.1-1.1-0.3l-0.8-0.8l-4.4,0.2l-0.6,0.8
			c-0.2,0.2-0.5,0.4-1,0.4c-0.6,0-1.1-0.2-1.1-0.5C-498.8-489.6-498.7-489.7-498.7-489.8"/>
		</g>
		<g transform="matrix(4.16667,0,0,4.16667,572.771,588.475)">
			<path class="st2" d="M-491.7-497.2c0-0.3,0.4-0.6,1.1-0.6c0.6,0,1.1,0.2,1.2,0.5l0.3,4c0,0.3-0.4,0.6-1.1,0.6
			c-0.6,0-1.1-0.2-1.2-0.5L-491.7-497.2z"/>
		</g>
		<g transform="matrix(4.16667,0,0,4.16667,590.162,588.123)">
			<path class="st2" d="M-490.8-497.2c0-0.3,0.5-0.5,1.1-0.5l0.2,0c0.5,0,0.8,0.1,1.1,0.3l4.2,2.8l0-2.6c0-0.3,0.5-0.5,1.1-0.5
			c0.6,0,1.1,0.2,1.1,0.5l-0.1,4c0,0.3-0.5,0.5-1.1,0.5h-0.1c-0.5,0-0.8-0.1-1.1-0.3l-4.4-2.9l0,2.7c0,0.3-0.5,0.5-1.1,0.5
			c-0.6,0-1.1-0.2-1.1-0.5L-490.8-497.2z"/>
		</g>
		<g transform="matrix(4.16667,0,0,4.16667,656.157,574.909)">
			<path class="st2" d="M-487.2-491.7L-487.2-491.7c0.1-0.9-1.1-1.6-2.9-1.7c-1.8-0.1-3.1,0.6-3.2,1.5l0,0c-0.1,0.9,1.1,1.6,2.9,1.7
			C-488.6-490.2-487.3-490.9-487.2-491.7 M-495.6-492L-495.6-492c0.2-1.4,2.6-2.5,5.7-2.4c3.1,0.1,5.2,1.3,5,2.7l0,0
			c-0.2,1.4-2.6,2.5-5.7,2.4C-493.7-489.4-495.8-490.6-495.6-492"/>
		</g>
		<g transform="matrix(4.16667,0,0,4.16667,668.78,566.901)">
			<path class="st2" d="M-486.5-487.7c-0.2-0.1-0.4-0.3-0.3-0.4c0.1-0.3,0.6-0.5,1.2-0.4c0.3,0,0.5,0.1,0.6,0.1
			c0.7,0.3,1.5,0.5,2.5,0.6c0.9,0.1,1.5-0.1,1.6-0.4l0,0c0.1-0.3-0.2-0.4-1.9-0.7c-2-0.4-3.2-0.7-3-1.7l0,0c0.2-0.9,1.8-1.4,3.9-1.3
			c1.2,0.1,2.2,0.3,3.1,0.6c0.2,0.1,0.4,0.2,0.4,0.5c-0.1,0.3-0.6,0.5-1.2,0.4c-0.2,0-0.4-0.1-0.5-0.1c-0.7-0.3-1.3-0.4-2-0.5
			c-0.8,0-1.3,0.1-1.4,0.4l0,0c-0.1,0.3,0.3,0.5,2,0.8c2,0.4,3,0.8,2.8,1.7l0,0c-0.2,1-1.9,1.4-4,1.3
			C-484.2-487-485.5-487.2-486.5-487.7"/>
		</g>
		<g transform="matrix(4.16667,0,0,4.16667,709.827,578.194)">
			<path class="st2" d="M-484.3-491l-2.5-2.4c-0.1-0.1-0.2-0.3-0.1-0.4c0.1-0.3,0.7-0.5,1.3-0.4c0.5,0,0.8,0.2,1,0.4l1.8,1.9l3.1-1.5
			c0.3-0.2,0.7-0.3,1.2-0.2c0.7,0.1,1,0.3,0.9,0.6c-0.1,0.1-0.2,0.3-0.4,0.4l-4,1.9l-0.5,1.4c-0.1,0.3-0.7,0.5-1.3,0.4
			c-0.6-0.1-1-0.3-0.9-0.6L-484.3-491z"/>
		</g>
		<g transform="matrix(4.16667,0,0,4.16667,738.539,607.222)">
			<path class="st2" d="M-482.8-499.8c0.1-0.3,0.7-0.5,1.3-0.4c0.6,0.1,1,0.4,0.8,0.7l-0.7,1.4l4,0.5l0.7-1.4
			c0.1-0.3,0.7-0.5,1.3-0.4c0.6,0.1,1,0.4,0.8,0.7l-1.8,3.9c-0.1,0.3-0.7,0.5-1.3,0.4c-0.6-0.1-1-0.4-0.8-0.7l0.7-1.5l-4-0.5
			l-0.7,1.5c-0.1,0.3-0.7,0.5-1.3,0.4c-0.6-0.1-1-0.4-0.8-0.7L-482.8-499.8z"/>
		</g>
		<g transform="matrix(4.16667,0,0,4.16667,782.944,607.717)">
			<path class="st2" d="M-480.4-497.8l-2-0.3c-0.5-0.1-0.8-0.4-0.7-0.6c0.2-0.3,0.7-0.4,1.3-0.3l6.2,0.9c0.5,0.1,0.8,0.4,0.7,0.6
			c-0.2,0.3-0.7,0.4-1.3,0.3l-2-0.3l-2,3.3c-0.2,0.3-0.8,0.5-1.4,0.4c-0.6-0.1-0.9-0.4-0.7-0.7L-480.4-497.8z"/>
		</g>
		<g transform="matrix(4.16667,0,0,4.16667,807.882,621.578)">
			<path class="st2" d="M-479.1-500.5c0.2-0.3,0.8-0.4,1.4-0.3c0.6,0.1,0.9,0.4,0.7,0.7l-2.7,3.7c-0.2,0.3-0.8,0.4-1.4,0.3
			c-0.6-0.1-0.9-0.4-0.7-0.7L-479.1-500.5z"/>
		</g>
		<g transform="matrix(4.16667,0,0,4.16667,852.369,629.019)">
			<path class="st2" d="M-476.7-501.3L-476.7-501.3c-0.3,0.3-0.9,0.4-1.5,0.3c-0.6-0.1-0.9-0.4-0.6-0.7l0,0c0.2-0.3,0.9-0.4,1.5-0.3
			C-476.7-501.8-476.4-501.5-476.7-501.3 M-479.5-501.9L-479.5-501.9c-0.3,0.3-0.9,0.4-1.5,0.3c-0.6-0.1-0.9-0.4-0.6-0.7l0,0
			c0.2-0.3,0.9-0.4,1.5-0.3C-479.5-502.5-479.2-502.2-479.5-501.9 M-479.1-498L-479.1-498c0.7-0.8,0.1-1.7-1.5-2
			c-1.6-0.4-3.3,0-4,0.8l0,0c-0.7,0.8-0.1,1.7,1.5,2C-481.5-496.9-479.8-497.2-479.1-498 M-486.8-499.7L-486.8-499.7
			c1.2-1.3,4.2-1.9,7-1.3c2.9,0.6,4,2.1,2.8,3.4l0,0c-1.1,1.3-4.2,1.9-7,1.3C-486.9-496.9-488-498.4-486.8-499.7"/>
		</g>
	</g>
</svg>
